<?xml version="1.0" encoding="UTF-8" standalone="no"?>
<!-- Generator: Adobe Illustrator 12.0.0, SVG Export Plug-In . SVG Version: 6.00 Build 51448)  -->
<svg
   xmlns:ns="http://ns.adobe.com/SaveForWeb/1.0/"
   xmlns:dc="http://purl.org/dc/elements/1.1/"
   xmlns:cc="http://creativecommons.org/ns#"
   xmlns:rdf="http://www.w3.org/1999/02/22-rdf-syntax-ns#"
   xmlns:svg="http://www.w3.org/2000/svg"
   xmlns="http://www.w3.org/2000/svg"
   xmlns:xlink="http://www.w3.org/1999/xlink"
   xmlns:sodipodi="http://sodipodi.sourceforge.net/DTD/sodipodi-0.dtd"
   xmlns:inkscape="http://www.inkscape.org/namespaces/inkscape"
   version="1.1"
   id="svg1877"
   sodipodi:docbase="/home/pinheiro/artwork/Oxygen/Pinheiro"
   inkscape:version="0.46"
   inkscape:output_extension="org.inkscape.output.svg.inkscape"
   sodipodi:docname="accessories-dictionary.svgz.uncompressed"
   sodipodi:version="0.32"
   width="128"
   height="128"
   viewBox="0 0 128 128"
   overflow="visible"
   enable-background="new 0 0 128 128"
   xml:space="preserve"><defs
   id="defs282"><linearGradient
     id="linearGradient1647"
     inkscape:collect="always"
     xlink:href="#linearGradient1644"
     gradientTransform="scale(1.9449464,0.514153)"
     x1="19.282015"
     y1="416.5117"
     x2="54.919248"
     y2="416.5117"
     gradientUnits="userSpaceOnUse" /><linearGradient
     id="linearGradient1643"
     inkscape:collect="always"
     x1="23.287686"
     x2="72.828643"
     xlink:href="#linearGradient1644"
     y1="285.35445"
     y2="285.35445"
     gradientTransform="scale(1.465786,0.6822278)"
     gradientUnits="userSpaceOnUse" /><linearGradient
     id="linearGradient1644"><stop
       id="stop1645"
       offset="0.0000000"
       style="stop-color:#ffff00;stop-opacity:1.0000000;" /><stop
       id="stop1646"
       offset="1.0000000"
       style="stop-color:#ffad00;stop-opacity:1.0000000;" /></linearGradient><linearGradient
     id="linearGradient1678"
     inkscape:collect="always"
     x1="66.358815"
     x2="441.62269"
     xlink:href="#linearGradient1644"
     y1="509.88416"
     y2="225.3098"
     gradientTransform="scale(0.9511867,1.0513183)"
     gradientUnits="userSpaceOnUse" /><linearGradient
     id="linearGradient1751"><stop
       id="stop1752"
       offset="0.0000000"
       style="stop-color:#767100;stop-opacity:1.0000000;" /><stop
       id="stop1753"
       offset="1.0000000"
       style="stop-color:#00ce00;stop-opacity:1.0000000;" /></linearGradient><linearGradient
     id="linearGradient1922"
     inkscape:collect="always"
     xlink:href="#linearGradient1751"
     gradientTransform="scale(1.7413193,0.5742772)"
     x1="7.2079011"
     y1="1112.5891"
     x2="270.94863"
     y2="1112.5891"
     gradientUnits="userSpaceOnUse" /><inkscape:perspective
     sodipodi:type="inkscape:persp3d"
     inkscape:vp_x="0 : 64 : 1"
     inkscape:vp_y="0 : 1000 : 0"
     inkscape:vp_z="128 : 64 : 1"
     inkscape:persp3d-origin="64 : 42.666667 : 1"
     id="perspective225" /><linearGradient
     id="linearGradient4202"><stop
       style="stop-color:#ffffff;stop-opacity:1;"
       offset="0"
       id="stop4204" /><stop
       style="stop-color:#ffffff;stop-opacity:0.55696201;"
       offset="1"
       id="stop4206" /></linearGradient><linearGradient
     id="linearGradient4194"><stop
       style="stop-color:#8c0000;stop-opacity:1;"
       offset="0"
       id="stop4196" /><stop
       style="stop-color:#8c0000;stop-opacity:0.74683547;"
       offset="1"
       id="stop4198" /></linearGradient><linearGradient
     id="linearGradient3717"><stop
       id="stop3719"
       offset="0"
       style="stop-color:#696969;stop-opacity:0.15189873;" /><stop
       style="stop-color:#919191;stop-opacity:1;"
       offset="0.6046198"
       id="stop3721" /><stop
       id="stop3723"
       offset="1"
       style="stop-color:#bdbdbd;stop-opacity:0.39240506;" /></linearGradient><linearGradient
     id="linearGradient3709"><stop
       id="stop3711"
       offset="0"
       style="stop-color:#b3b3b3;stop-opacity:0.14901961;" /><stop
       style="stop-color:#919191;stop-opacity:1;"
       offset="0.66884249"
       id="stop3713" /><stop
       id="stop3715"
       offset="1"
       style="stop-color:#bdbdbd;stop-opacity:0.39240506;" /></linearGradient><linearGradient
     id="linearGradient3869"><stop
       id="stop3871"
       offset="0"
       style="stop-color:#696969;stop-opacity:0.15189873;" /><stop
       style="stop-color:#919191;stop-opacity:1;"
       offset="0.67074138"
       id="stop3873" /><stop
       id="stop3875"
       offset="1"
       style="stop-color:#bdbdbd;stop-opacity:0.39240506;" /></linearGradient><linearGradient
     id="linearGradient3851"><stop
       style="stop-color:#696969;stop-opacity:0.15189873;"
       offset="0"
       id="stop3853" /><stop
       id="stop3859"
       offset="0.5"
       style="stop-color:#919191;stop-opacity:1;" /><stop
       style="stop-color:#bdbdbd;stop-opacity:0.39240506;"
       offset="1"
       id="stop3855" /></linearGradient><linearGradient
     id="linearGradient3081"><stop
       style="stop-color:#610000;stop-opacity:1;"
       offset="0"
       id="stop3083" /><stop
       style="stop-color:#540000;stop-opacity:1;"
       offset="1"
       id="stop3085" /></linearGradient><filter
     inkscape:collect="always"
     id="filter3031"><feGaussianBlur
       inkscape:collect="always"
       stdDeviation="0.26804993"
       id="feGaussianBlur3033" /></filter><filter
     inkscape:collect="always"
     id="filter3035"><feGaussianBlur
       inkscape:collect="always"
       stdDeviation="0.26774803"
       id="feGaussianBlur3037" /></filter><filter
     inkscape:collect="always"
     id="filter3051"><feGaussianBlur
       inkscape:collect="always"
       stdDeviation="0.12874266"
       id="feGaussianBlur3053" /></filter><clipPath
     clipPathUnits="userSpaceOnUse"
     id="clipPath3069"><path
       id="path3071"
       d="M 115.446,90.505 L 107.6565,47.931 C 107.6565,47.931 12.50575,38.7485 15.292875,67.0105 C 18.08,95.2725 20.838,102.044 24.712,101.703 L 111.705,93.216 L 113.066,93.083 C 115.187,92.69 115.683,92.251 115.446,90.505 z"
       style="fill:#e20071"
       sodipodi:nodetypes="ccscccc" /></clipPath><filter
     inkscape:collect="always"
     id="filter3077"><feGaussianBlur
       inkscape:collect="always"
       stdDeviation="0.39699429"
       id="feGaussianBlur3079" /></filter><linearGradient
     inkscape:collect="always"
     xlink:href="#linearGradient3081"
     id="linearGradient3087"
     x1="20.673505"
     y1="96.192035"
     x2="115.49258"
     y2="96.192035"
     gradientUnits="userSpaceOnUse" /><linearGradient
     inkscape:collect="always"
     xlink:href="#linearGradient3851"
     id="linearGradient3857"
     x1="66.156647"
     y1="113.687"
     x2="109.881"
     y2="113.687"
     gradientUnits="userSpaceOnUse" /><linearGradient
     inkscape:collect="always"
     xlink:href="#linearGradient3869"
     id="linearGradient3867"
     x1="25.990999"
     y1="111.687"
     x2="109.881"
     y2="111.687"
     gradientUnits="userSpaceOnUse" /><linearGradient
     inkscape:collect="always"
     xlink:href="#linearGradient3851"
     id="linearGradient3883"
     x1="44.886406"
     y1="108.75771"
     x2="90.469322"
     y2="109.687"
     gradientUnits="userSpaceOnUse" /><linearGradient
     inkscape:collect="always"
     xlink:href="#linearGradient3851"
     id="linearGradient3891"
     x1="50.255592"
     y1="98.034943"
     x2="109.881"
     y2="99.686996"
     gradientUnits="userSpaceOnUse" /><linearGradient
     inkscape:collect="always"
     xlink:href="#linearGradient3851"
     id="linearGradient3899"
     x1="35.847527"
     y1="105.32194"
     x2="109.881"
     y2="105.687"
     gradientUnits="userSpaceOnUse" /><linearGradient
     inkscape:collect="always"
     xlink:href="#linearGradient3717"
     id="linearGradient3907"
     x1="25.990999"
     y1="107.687"
     x2="109.881"
     y2="107.687"
     gradientUnits="userSpaceOnUse" /><linearGradient
     inkscape:collect="always"
     xlink:href="#linearGradient3851"
     id="linearGradient2937"
     x1="25.990999"
     y1="101.687"
     x2="109.881"
     y2="101.687"
     gradientUnits="userSpaceOnUse" /><linearGradient
     inkscape:collect="always"
     xlink:href="#linearGradient3709"
     id="linearGradient3326"
     x1="25.990999"
     y1="103.687"
     x2="109.881"
     y2="103.687"
     gradientUnits="userSpaceOnUse" /><filter
     inkscape:collect="always"
     id="filter4128"><feGaussianBlur
       inkscape:collect="always"
       stdDeviation="0.1344975"
       id="feGaussianBlur4130" /></filter><filter
     inkscape:collect="always"
     x="-0.0627307"
     width="1.1254614"
     y="-0.20440804"
     height="1.4088161"
     id="filter4132"><feGaussianBlur
       inkscape:collect="always"
       stdDeviation="2.3882525"
       id="feGaussianBlur4134" /></filter><filter
     inkscape:collect="always"
     id="filter4188"><feGaussianBlur
       inkscape:collect="always"
       stdDeviation="2.2899436"
       id="feGaussianBlur4190" /></filter><linearGradient
     inkscape:collect="always"
     xlink:href="#linearGradient3081"
     id="linearGradient4192"
     gradientUnits="userSpaceOnUse"
     x1="20.673505"
     y1="96.192035"
     x2="115.49258"
     y2="96.192035" /><linearGradient
     inkscape:collect="always"
     xlink:href="#linearGradient4194"
     id="linearGradient4200"
     x1="20"
     y1="24"
     x2="99.5"
     y2="24"
     gradientUnits="userSpaceOnUse" /><linearGradient
     inkscape:collect="always"
     xlink:href="#linearGradient4202"
     id="linearGradient4208"
     x1="20"
     y1="25"
     x2="99.5"
     y2="25"
     gradientUnits="userSpaceOnUse" /></defs><sodipodi:namedview
   inkscape:window-height="962"
   inkscape:window-width="1280"
   inkscape:pageshadow="2"
   inkscape:pageopacity="0.0"
   guidetolerance="10.0"
   gridtolerance="10.0"
   objecttolerance="10.0"
   borderopacity="1.0"
   bordercolor="#666666"
   pagecolor="#ffffff"
   id="base"
   inkscape:zoom="16"
   inkscape:cx="61.195833"
   inkscape:cy="103.83554"
   inkscape:window-x="-4"
   inkscape:window-y="-3"
   inkscape:current-layer="svg1877"
   showgrid="false"
   showguides="true"
   inkscape:guide-bbox="true" />
<metadata
   id="metadata1882">
	<rdf:RDF>
		<cc:Work
   rdf:about="">
			<dc:format>image/svg+xml</dc:format>
			<dc:type
   rdf:resource="http://purl.org/dc/dcmitype/StillImage" />
		</cc:Work>
	</rdf:RDF>
	<ns:sfw>
		<ns:slices />
		<ns:sliceSourceBounds
   x="8"
   y="3"
   height="121"
   width="113.736"
   bottomLeftOrigin="true" />
	</ns:sfw>
</metadata>
<filter
   id="AI_Sfocatura_3">
	<feGaussianBlur
   stdDeviation="3"
   id="feGaussianBlur5" />
</filter>
<linearGradient
   id="path2797_1_"
   gradientUnits="userSpaceOnUse"
   x1="66.3574"
   y1="118.2754"
   x2="66.3574"
   y2="99.0564"
   gradientTransform="translate(0,-1)">
	<stop
   offset="0"
   style="stop-color:#DEDEDE"
   id="stop8" />
	<stop
   offset="1"
   style="stop-color:#FFFFFF"
   id="stop10" />
</linearGradient>
<path
   style="opacity:0.6;fill:#000000;fill-opacity:1;filter:url(#filter4188)"
   d="M 97.375,3.5 C 97.147705,3.508416 96.889875,3.538125 96.625,3.5625 L 15.0625,9.84375 L 13.8125,10.25 L 12.6875,10.21875 L 10.65625,10.40625 C 9.1452499,10.54625 8.067,13.16275 7.75,14.84375 C 7.4329999,16.52475 7.5,26.15625 7.5,26.15625 L 18.4375,119.125 C 18.913501,121.244 19.83525,124.80275 22.03125,124.46875 L 22.8125,124.375 L 22.8125,124.40625 L 109.59375,115.5625 C 111.71375,115.3685 113.1765,113.77625 112.9375,112.03125 L 112.09375,93.1875 L 113.0625,93.09375 C 115.1835,92.70075 115.6745,92.246 115.4375,90.5 L 99.875,5.34375 C 99.666753,3.8160001 98.966064,3.4410879 97.375,3.5 z"
   id="path4186"
   transform="matrix(0.9870646,0,0,0.9451576,-0.9030608,6.8273745)" /><path
   id="path2797"
   sodipodi:nodetypes="ccccc"
   d="M 111.992,92.187 C 111.992,92.187 112.508,107.358 110.281,111.728 L 22.479,121.437 C 19.083,121.955 20.838,101.044 24.712,100.703 L 111.992,92.187 z"
   style="fill:url(#path2797_1_)" />
<g
   id="g13"
   transform="translate(-20,-1)">
	<defs
   id="defs15"><path
     id="path2797_2_"
     sodipodi:nodetypes="ccccc"
     d="M 111.992,92.226 C 111.992,92.226 112.508,107.397 110.281,111.767 L 22.479,121.476 C 19.083,121.994 20.838,101.083 24.712,100.743 L 111.992,92.226 z" /></defs>
	<clipPath
   id="path2797_3_">
		<use
   xlink:href="#path2797_2_"
   id="use19"
   x="0"
   y="0"
   width="128"
   height="128" />
	</clipPath>
	<g
   clip-path="url(#path2797_3_)"
   id="g21"
   style="filter:url(#filter4132)"
   transform="translate(20,0)">
		<linearGradient
   id="XMLID_1_"
   gradientUnits="userSpaceOnUse"
   x1="20.4004"
   y1="105.2852"
   x2="112.043"
   y2="105.2852">
			<stop
   offset="0.3195"
   style="stop-color:#2E3436"
   id="stop24" />
			<stop
   offset="1"
   style="stop-color:#888A85"
   id="stop26" />
		</linearGradient>
		<path
   d="M 25.677,102.664 L 112.043,94.237 C 112.032,92.443 111.992,90.303 111.992,90.303 L 23.748,98.82 C 20.168,99.134 19.364,117.966 21.797,120.267 C 21.089,114.534 22.796,102.917 25.677,102.664 z"
   id="path28"
   style="fill:url(#XMLID_1_)" />
	</g>
</g>
<radialGradient
   id="XMLID_3_"
   cx="23.4214"
   cy="-24.1943"
   r="152.103"
   gradientTransform="matrix(1,0,0,0.9966,0,-0.7838)"
   gradientUnits="userSpaceOnUse">
	<stop
   offset="0.0533"
   style="stop-color:#E29390"
   id="stop31" />
	<stop
   offset="0.6627"
   style="stop-color:#A71B1B"
   id="stop33" />
	<stop
   offset="0.9053"
   style="stop-color:#8A2121"
   id="stop35" />
</radialGradient>
<path
   d="M 115.446,89.505 L 99.867,4.357 C 99.629,2.611 98.75,2.361 96.631,2.556 L 15.069,8.845 L 13.819,9.255 L 12.674,9.226 L 10.663,9.399 C 9.152,9.539 21.056,122.517 21.056,122.517 L 22.479,121.437 C 19.083,121.955 20.838,101.044 24.712,100.703 L 111.705,92.216 L 113.066,92.083 C 115.187,91.69 115.683,91.251 115.446,89.505 z"
   id="path37"
   style="fill:url(#XMLID_3_)" />
<linearGradient
   id="XMLID_4_"
   gradientUnits="userSpaceOnUse"
   x1="8.9722"
   y1="68.4072"
   x2="19.3589"
   y2="67.0882"
   gradientTransform="translate(0,-1)">
	<stop
   offset="0.3136"
   style="stop-color:#8A2121"
   id="stop40" />
	<stop
   offset="0.5367"
   style="stop-color:#8C2323"
   id="stop42" />
	<stop
   offset="0.6399"
   style="stop-color:#942A2A"
   id="stop44" />
	<stop
   offset="0.7185"
   style="stop-color:#A03636"
   id="stop46" />
	<stop
   offset="0.7845"
   style="stop-color:#B34846"
   id="stop48" />
	<stop
   offset="0.8422"
   style="stop-color:#CA5E5C"
   id="stop50" />
	<stop
   offset="0.8639"
   style="stop-color:#D56966"
   id="stop52" />
	<stop
   offset="0.9172"
   style="stop-color:#E29390"
   id="stop54" />
	<stop
   offset="1"
   style="stop-color:#7A1212"
   id="stop56" />
</linearGradient>
<path
   d="M 22.479,121.437 C 19.083,121.955 20.838,101.044 24.712,100.703 C 24.712,100.703 12.676,9.23 12.674,9.227 L 10.663,9.4 C 9.152,9.54 8.059,12.171 7.742,13.852 C 7.425,15.533 7.511,25.165 7.511,25.165 L 18.446,118.115 C 18.922,120.234 19.825,123.813 22.021,123.479 L 25.563,123.093 L 26.592,120.982 L 22.479,121.437 z"
   id="path58"
   style="fill:url(#XMLID_4_)" />
<linearGradient
   id="XMLID_5_"
   gradientUnits="userSpaceOnUse"
   x1="17.644"
   y1="56.1646"
   x2="24.7346"
   y2="55.168"
   gradientTransform="translate(0,-1)">
	<stop
   offset="0"
   style="stop-color:#9C0F0F"
   id="stop61" />
	<stop
   offset="0.316"
   style="stop-color:#FFFFFF"
   id="stop63" />
	<stop
   offset="0.6029"
   style="stop-color:#BF0303"
   id="stop65" />
</linearGradient>
<path
   d="M 24.712,100.702 L 28.244,100.359 L 15.431,8.817 L 15.07,8.845 L 13.82,9.255 L 12.675,9.226 L 11.839,9.298 L 24.367,100.791 C 24.479,100.744 24.595,100.713 24.712,100.702 z"
   id="path67"
   style="opacity:0.5;fill:url(#XMLID_5_)" />
<g
   id="g69"
   transform="translate(0,-1)">
	<g
   id="g71">
		<linearGradient
   id="XMLID_6_"
   gradientUnits="userSpaceOnUse"
   x1="70.734398"
   y1="116.3115"
   x2="111.5255"
   y2="90.542198">
			<stop
   offset="0.3136"
   style="stop-color:#8A2121"
   id="stop74" />
			<stop
   offset="0.4265"
   style="stop-color:#8E2525"
   id="stop76" />
			<stop
   offset="0.5426"
   style="stop-color:#9A3130"
   id="stop78" />
			<stop
   offset="0.6601"
   style="stop-color:#AF4543"
   id="stop80" />
			<stop
   offset="0.7779"
   style="stop-color:#CC605D"
   id="stop82" />
			<stop
   offset="0.8107"
   style="stop-color:#D56966"
   id="stop84" />
			<stop
   offset="1"
   style="stop-color:#E29390"
   id="stop86" />
		</linearGradient>
		<path
   d="M 112.942,112.02 L 112.096,93.082 L 111.992,93.186 C 111.992,93.186 112.508,108.357 110.281,112.727 L 22.479,122.436 L 22.797,124.393 L 109.6,115.556 C 111.72,115.362 113.181,113.765 112.942,112.02 z"
   id="path88"
   style="fill:url(#XMLID_6_)" />
	</g>
</g>
<g
   id="g90"
   clip-path="url(#clipPath3069)"
   style="fill:url(#linearGradient3087);fill-opacity:1;filter:url(#filter3077)"
   transform="translate(0,-1)">
	<linearGradient
   id="XMLID_7_"
   gradientUnits="userSpaceOnUse"
   x1="115.4932"
   y1="103.2646"
   x2="20.6738"
   y2="103.2647">
		<stop
   offset="0"
   style="stop-color:#590000;fill-opacity:1;fill:url(#linearGradient3087)"
   id="stop93" />
		<stop
   offset="0.9053"
   style="stop-color:#8A2121;fill-opacity:1;fill:url(#linearGradient3087)"
   id="stop95" />
	</linearGradient>
	<path
   d="M 113.066,92.121 L 111.705,92.254 L 24.712,100.742 C 22.206,100.962 20.588,109.793 20.677,115.86 C 20.758,109.864 22.335,101.913 24.712,101.702 L 111.705,93.215 L 113.066,93.082 C 115.113,92.704 115.639,92.27 115.46,90.669 C 115.305,91.514 114.629,91.831 113.066,92.121 z"
   id="path97"
   style="fill:url(#linearGradient4192);fill-opacity:1" />
</g>
<linearGradient
   id="XMLID_8_"
   gradientUnits="userSpaceOnUse"
   x1="22.2095"
   y1="122.4463"
   x2="22.2095"
   y2="101.7021"
   gradientTransform="translate(0,-1)">
	<stop
   offset="0"
   style="stop-color:#9C0F0F"
   id="stop100" />
	<stop
   offset="1"
   style="stop-color:#FF8080"
   id="stop102" />
</linearGradient>



<line
   x1="99"
   y1="21.502001"
   x2="20.5"
   y2="28.497999"
   id="line261"
   style="opacity:0.50000000000000000;fill:none;stroke:url(#linearGradient4208);stroke-linecap:round" />
<line
   x1="99"
   y1="20.502001"
   x2="20.5"
   y2="27.497999"
   id="line263"
   style="opacity:0.50000000000000000;fill:none;stroke:url(#linearGradient4200);stroke-linecap:round" />







<g
   id="g3725"
   style="opacity:1;filter:url(#filter4128)"
   transform="translate(0,-1)"><line
     style="fill:none;stroke:url(#linearGradient3326)"
     id="line265"
     y2="99.333"
     x2="109.381"
     y1="108.041"
     x1="26.490999" /><line
     style="fill:none;stroke:url(#linearGradient2937)"
     id="line267"
     y2="97.333"
     x2="109.381"
     y1="106.041"
     x1="26.490999" /><line
     style="fill:none;stroke:url(#linearGradient3891)"
     id="line269"
     y2="95.333"
     x2="109.381"
     y1="104.041"
     x1="26.490999" /><line
     style="fill:none;stroke:url(#linearGradient3899)"
     id="line271"
     y2="101.333"
     x2="109.381"
     y1="110.041"
     x1="26.490999" /><line
     style="fill:none;stroke:url(#linearGradient3907)"
     id="line273"
     y2="103.333"
     x2="109.381"
     y1="112.041"
     x1="26.490999" /><line
     style="fill:none;stroke:url(#linearGradient3883)"
     id="line275"
     y2="105.333"
     x2="109.381"
     y1="114.041"
     x1="26.490999" /><line
     style="fill:none;stroke:url(#linearGradient3867)"
     id="line277"
     y2="107.333"
     x2="109.381"
     y1="116.041"
     x1="26.490999" /><line
     style="fill:none;stroke:url(#linearGradient3857);stroke-linecap:round"
     id="line279"
     y2="109.333"
     x2="109.381"
     y1="118.041"
     x1="26.490999" /></g>
<path
   d="M 24.712,100.702 L 23.748,100.702 C 19.874,101.044 18.118,121.954 21.515,121.436 L 22.074,121.374 C 19.24,120.184 21.005,101.029 24.712,100.702 z"
   id="path104"
   style="fill:url(#XMLID_8_);filter:url(#filter3051)" /><g
   id="g4158"
   style="fill:#e20071"
   transform="translate(0,-1)">
	<g
   id="g4160"
   style="fill:#e20071">
		<linearGradient
   y2="90.542198"
   x2="111.5255"
   y1="116.3115"
   x1="70.734398"
   gradientUnits="userSpaceOnUse"
   id="linearGradient4162">
			<stop
   id="stop4164"
   style="stop-color:#8A2121"
   offset="0.3136" />
			<stop
   id="stop4166"
   style="stop-color:#8E2525"
   offset="0.4265" />
			<stop
   id="stop4168"
   style="stop-color:#9A3130"
   offset="0.5426" />
			<stop
   id="stop4170"
   style="stop-color:#AF4543"
   offset="0.6601" />
			<stop
   id="stop4172"
   style="stop-color:#CC605D"
   offset="0.7779" />
			<stop
   id="stop4174"
   style="stop-color:#D56966"
   offset="0.8107" />
			<stop
   id="stop4176"
   style="stop-color:#E29390"
   offset="1" />
		</linearGradient>
		
	</g>
</g><g
   id="g984"
   transform="matrix(0.1271196,-1.9973792e-2,1.9261185e-2,0.1225843,8.6647613,12.712755)"><path
     d="M 458.01677,564.441 C 450.9615,563.48227 443.72326,568.70729 439.4916,576.91926 C 402.45099,613.4863 329.23968,615.97042 251.52578,618.5815 C 169.56847,621.33515 82.751385,624.37744 28.042125,667.75477 C 22.058925,670.38259 16.512695,678.28437 14.470245,688.22847 C 11.827315,701.09612 15.985675,712.4073 23.753045,713.46278 C 27.685865,713.9972 31.784955,711.76637 35.225125,707.79972 C 35.234995,707.83508 35.249135,707.86927 35.259005,707.90463 C 81.012965,656.1863 157.52314,650.55415 237.17837,648.22795 C 316.8336,645.90167 399.61982,646.89836 457.88908,608.50769 C 457.87045,608.43682 457.83993,608.36874 457.82133,608.29786 C 463.47624,604.8703 468.29304,598.3306 470.01558,589.94406 C 472.6485,577.12518 467.27483,565.69904 458.01677,564.441 z"
     id="rect1708"
     style="fill:url(#linearGradient1922);fill-opacity:1;fill-rule:evenodd;stroke:#9c0000;stroke-width:2.24708128;stroke-linecap:butt;stroke-linejoin:miter;stroke-miterlimit:4;stroke-opacity:0.50427354"
     transform="matrix(0.900128,0,0,0.880072,61.56576,68.61343)" /><path
     d="M 318.42994,543.35951 C 319.03267,538.75938 296.02278,538.90376 292.96119,544.32826 C 286.42511,555.90885 290.94577,582.64247 285.58619,601.51576 C 285.56822,601.57902 286.30249,601.30514 285.39869,601.48451 C 281.93242,602.17244 273.35498,605.09829 271.33576,609.59684 C 270.25209,612.01109 265.86086,616.22719 265.66324,617.43374 C 265.39814,619.05228 267.86057,615.76543 268.87608,617.5275 C 267.78576,617.77413 279.16827,610.43154 284.44355,616.48502 C 284.88079,616.98676 286.47693,618.32958 288.07986,620.08733 C 288.2945,620.3227 289.53037,621.78062 289.71119,622.04701 C 291.46163,624.62582 292.30494,628.41454 292.30494,632.04701 C 292.30495,642.6504 285.21912,649.61646 277.11154,651.28117 C 276.20053,651.46822 276.61036,653.39076 277.80494,653.39076 C 289.62308,653.39078 299.24244,643.83581 299.24244,632.04701 C 299.24244,626.86928 296.95958,622.1662 294.24244,618.45326 C 294.06413,618.2096 294.44778,617.42307 294.67994,617.60951 C 298.95473,621.0424 301.80494,627.10482 301.80494,633.39076 C 301.80494,643.99418 294.19874,651.51187 286.09116,653.17655 C 285.18015,653.3636 286.14161,654.76576 287.33619,654.76576 C 299.15434,654.76574 308.74244,645.17956 308.74244,633.39076 C 308.74244,624.6881 307.98676,620.9786 302.75734,615.10497 C 302.41946,614.72546 301.44621,613.57168 299.53816,612.1548 C 297.36428,610.54053 293.03871,607.68511 293.52369,605.32826 C 297.90776,584.02304 316.96217,554.56186 318.42994,543.35951 z"
     id="path1749"
     sodipodi:nodetypes="cssssscsssssssssssssssss"
     style="fill:#9c0000;fill-opacity:1;fill-rule:evenodd;stroke:#000000;stroke-width:0.99999905pt;stroke-linecap:butt;stroke-linejoin:miter;stroke-opacity:1"
     transform="matrix(0.900128,0,0,0.880072,61.56576,68.61343)" /><path
     d="M 172.0863,116.60994 C 123.03683,116.60994 81.263295,154.85379 80.867555,207.26619 C 81.356915,213.43908 81.702195,219.32276 82.211305,224.82869 C 82.720415,230.33463 84.356995,235.34684 84.492555,240.23494 C 84.752595,249.61181 83.433265,261.24929 77.461305,271.79745 C 39.432295,338.36171 90.751325,447.52186 192.86755,516.42244 C 295.70023,585.80641 411.24435,588.22255 450.80505,521.79744 C 457.30431,510.88473 469.09408,480.54831 470.8607,467.64674 L 481.29115,473.53449 L 490.84624,478.82944 L 500.17219,482.19197 L 506.15694,484.88434 L 511.75949,486.72335 L 517.62605,488.68218 L 525.55926,490.57759 L 535.04893,491.35908 L 542.49757,487.63511 L 529.50306,472.06254 L 516.78692,455.13734 L 503.6774,433.76781 L 484.87719,410.35517 L 463.1837,384.12052 L 439.08158,356.59778 L 410.74269,328.74265 C 358.44185,279.5637 305.41388,244.08148 271.0863,230.29744 C 265.47938,225.92057 258.22844,221.94159 258.0863,210.48494 C 251.75438,157.67681 221.13578,116.60994 172.0863,116.60994 z"
     id="path918"
     sodipodi:nodetypes="ccccccccccccccccccccccccccc"
     style="fill:#ffff00;fill-opacity:0.48717951;fill-rule:evenodd;stroke:#000000;stroke-width:1pt;stroke-linecap:butt;stroke-linejoin:miter;stroke-opacity:1"
     transform="matrix(0.900128,0,0,0.880072,61.56576,68.61343)" /><path
     d="M 190.65884,119.34165 C 182.52184,127.17051 138.37097,128.46259 141.41145,173.92204 C 144.55573,193.02961 129.09883,203.11519 104.78586,205.6274 C 97.298195,206.49959 95.663875,206.21017 95.137015,204.86577 C 94.610155,203.52137 95.190765,201.12199 92.132935,197.77425 C 89.075115,194.42652 86.545215,189.95844 86.016465,184.86697 C 85.487715,179.77551 86.960105,174.06066 90.018645,168.21939 C 96.000195,156.75594 104.83535,144.45504 118.25186,134.56659 C 130.72678,125.80291 145.04953,119.36198 157.52551,118.15663 C 160.59368,117.55171 163.58015,117.16931 166.44723,117.02158 C 169.3143,116.87385 172.78599,117.18863 175.59873,117.10613 C 177.38892,117.18839 178.77248,117.06825 180.9693,117.3529 C 184.19914,117.81343 187.42899,118.67874 190.65884,119.34165 z"
     id="path1549"
     sodipodi:nodetypes="ccccccccccccc"
     style="fill:#ff0000;fill-opacity:1;fill-rule:evenodd;stroke:#000000;stroke-width:0;stroke-linecap:butt;stroke-linejoin:miter;stroke-miterlimit:4;stroke-opacity:1"
     transform="matrix(0.900128,0,0,0.880072,61.56576,68.61343)" /><path
     d="M -73.32588,248.49327 A 13.578867,13.578867 0 1 1 -100.48361,248.49327 A 13.578867,13.578867 0 1 1 -73.32588,248.49327 z"
     id="path1551"
     sodipodi:cx="-86.904747"
     sodipodi:cy="248.49327"
     sodipodi:rx="13.578867"
     sodipodi:ry="13.578867"
     sodipodi:type="arc"
     style="fill:#000000;fill-opacity:1;fill-rule:evenodd;stroke:none;stroke-width:1pt;stroke-linecap:butt;stroke-linejoin:miter;stroke-opacity:1"
     transform="matrix(0.900128,0,0,0.880072,285.6059,2.342706)" /><path
     d="M -131.715,284.47726 A 7.4683766,7.4683766 0 1 1 -146.65176,284.47726 A 7.4683766,7.4683766 0 1 1 -131.715,284.47726 z"
     id="path1552"
     sodipodi:cx="-139.18338"
     sodipodi:cy="284.47726"
     sodipodi:rx="7.4683766"
     sodipodi:ry="7.4683766"
     sodipodi:type="arc"
     style="fill:#ffffff;fill-opacity:1;fill-rule:evenodd;stroke:none;stroke-width:1pt;stroke-linecap:butt;stroke-linejoin:miter;stroke-opacity:1"
     transform="matrix(0.64334,0,0,0.635613,291.1198,37.65815)" /><path
     d="M 83.221835,187.52752 C 90.196565,191.99135 99.599285,206.4454 108.78864,214.69226 C 113.44797,218.87371 119.06098,222.32719 124.7679,224.81246 C 130.06891,227.12097 136.05932,228.09849 141.81245,229.0736 C 146.53462,229.87397 151.40896,229.69378 156.19378,230.13888 C 159.04349,230.40397 164.32841,230.42887 164.71606,231.20417 C 165.0386,231.84925 160.58358,233.7154 158.32435,234.40002 C 154.72452,235.49088 150.87887,235.88945 147.13887,236.53059 C 144.66471,236.95473 142.17768,237.33768 139.68188,237.59587 C 137.02881,237.87032 134.35796,238.02598 131.69225,238.12851 C 129.74173,238.20353 127.78621,238.12851 125.83319,238.12851 C 123.34753,238.12851 120.82255,238.42207 118.3762,238.12851 C 116.38387,237.88943 113.87391,235.94912 112.51714,236.53059 C 111.38824,237.0144 110.97812,239.67486 110.91921,241.32436 C 110.80057,244.64619 110.91588,248.33584 111.9845,251.44456 C 112.8689,254.01736 115.02751,256.18046 116.77827,258.36891 C 119.28864,261.50688 122.17771,264.34359 124.7679,267.42382 C 128.74696,272.15569 132.72832,276.89927 136.48603,281.80517 C 139.12003,285.244 142.40336,288.60886 143.94302,292.45801 C 144.88902,294.82302 145.04616,300.44764 143.94302,300.44764 C 142.38295,300.44764 138.85011,294.8183 135.95339,292.45801 C 134.05633,290.91226 131.71346,289.93451 129.56168,288.72951 C 127.27478,287.44885 124.89087,286.33645 122.63734,285.00102 C 120.09709,283.49569 117.58852,281.91303 115.18035,280.20724 C 113.32738,278.89472 111.57941,277.42508 109.85393,275.9461 C 107.85092,274.22923 105.91044,272.43443 103.99487,270.61968 C 102.53704,269.23858 101.08012,267.83957 99.733735,266.35854 C 99.304655,265.88655 99.001255,264.35649 98.668455,264.76061 C 96.515595,267.37479 94.232465,271.76871 92.276745,275.41346 C 90.326425,279.04815 88.481665,282.7706 86.950325,286.59894 C 84.930715,291.64796 82.825105,296.76029 81.623905,302.04556 C 80.161895,308.47842 79.267785,315.15096 78.960695,321.75332 C 78.557595,330.42003 78.206525,339.33996 79.493345,347.85277 C 80.514645,354.60903 83.336495,361.15275 85.885045,367.56053 C 89.550655,376.77691 93.440155,386.00475 98.135815,394.72527 C 102.13997,402.16156 106.97544,409.21534 111.9845,416.03095 C 117.80583,423.95177 124.1306,431.54828 130.62697,438.93456 C 137.09156,446.28471 143.94307,453.31595 150.86736,460.24024 C 157.61422,466.9871 164.32256,473.84978 171.6404,479.94798 C 179.23654,486.2781 187.57495,491.72824 195.60929,497.52517 C 201.60119,501.84844 207.31,506.70894 213.71912,510.30858 C 220.27096,513.98838 227.37996,516.87851 234.49216,519.36349 C 242.11639,522.02738 249.97517,524.88121 257.92841,525.75519 C 266.13198,526.65668 274.70589,525.722 282.96258,524.68991 C 290.33005,523.76898 297.56788,521.67962 304.8009,519.89613 C 310.52883,518.48376 316.2222,516.88305 321.84545,515.10235 C 326.87504,513.50965 332.2285,507.64695 336.75942,509.77593 C 361.70136,521.49564 394.69498,541.96065 410.26402,556.64843 C 413.51499,559.71539 399.03098,561.34511 393.21947,563.04013 C 386.24757,565.0736 379.10487,566.9033 371.91379,567.83391 C 364.01335,568.85632 355.91127,569.26463 347.9449,568.8992 C 336.55862,568.37689 325.10724,567.06169 313.85582,565.1707 C 303.97911,563.51075 294.26494,560.78584 284.56051,558.24636 C 275.26737,555.81451 265.7142,553.88794 256.86312,550.25673 C 244.94116,545.36567 233.6055,538.86002 222.24139,532.67954 C 213.3651,527.85209 204.54163,522.83272 196.14193,517.23292 C 187.49708,511.46969 179.28264,505.02013 171.10776,498.59045 C 163.48093,492.59182 155.79875,486.58451 148.7368,479.94798 C 141.06232,472.73582 133.78256,465.02367 126.89847,457.04438 C 118.15839,446.91384 109.26432,436.71854 101.8643,425.61851 C 95.060535,415.41286 89.364375,404.31451 84.287115,393.12734 C 78.889075,381.23336 74.227485,368.85666 70.438425,356.37505 C 68.190875,348.97136 67.087865,341.1608 66.177285,333.47144 C 65.489945,327.6672 65.245685,321.71909 65.644645,315.89425 C 66.133425,308.75813 67.047405,301.50477 68.840495,294.58857 C 70.775895,287.12344 73.877435,279.90484 76.830125,272.75025 C 78.493665,268.71936 81.294285,265.12965 82.689195,261.03212 C 84.135045,256.78493 85.197995,252.19393 85.352405,247.71607 C 85.553095,241.89618 84.295245,235.99719 83.754475,230.13888 C 83.229955,224.45662 82.436555,218.78767 82.156555,213.09434 C 81.903915,207.95728 81.942485,202.78536 82.156555,197.64772 C 82.297585,194.26308 81.319205,186.30984 83.221835,187.52752 z"
     id="path1562"
     sodipodi:nodetypes="csssssssssssssssssssssssssssssssssssssssssssssssssssssssssssssssssssssss"
     style="fill:url(#linearGradient1678);fill-opacity:1;fill-rule:evenodd;stroke:none;stroke-width:1pt;stroke-linecap:butt;stroke-linejoin:miter;stroke-opacity:1"
     transform="matrix(0.900128,0,0,0.880072,61.56576,68.61343)" /><path
     d="M 544.91732,481.43202 C 549.66171,483.64607 568.40662,493.29725 580.22234,499.08455 C 590.58542,504.16035 601.07711,508.97321 611.45374,514.0213 C 617.82437,517.12053 623.96769,520.71723 630.46414,523.52651 C 640.71495,527.9593 651.4127,531.37729 661.69554,535.74749 C 669.51786,539.07198 677.17569,542.80861 684.77964,546.61058 C 691.65983,550.05067 698.43634,553.71518 705.14794,557.47368 C 709.75207,560.05199 714.37835,562.64573 718.72684,565.621 C 722.97832,568.5299 734.13626,574.54649 730.94784,575.1262 C 719.1995,577.26226 686.26709,569.99454 673.91654,573.76832 C 669.97242,574.97346 683.81551,586.77858 682.06384,590.06296 C 680.19448,593.56801 663.05344,589.22158 663.05344,594.13662 C 663.05344,608.68462 688.25257,645.35773 682.06384,648.45209 C 674.6737,652.14716 641.62061,626.76543 622.31684,614.50492 C 608.12608,605.49187 594.91541,594.90605 581.58024,584.63141 C 567.30505,573.63249 554.22696,560.95043 539.48577,550.68424 C 528.87975,543.2979 516.37715,538.70423 505.53861,531.67383 C 499.62988,527.84114 495.40309,521.35567 489.24397,518.09496 C 480.01371,513.20835 459.85614,508.44606 459.37046,507.23187 C 458.95088,506.18291 477.47421,509.95706 486.52819,511.30553 C 498.74777,513.12547 510.93958,515.17305 523.19113,516.73708 C 532.21314,517.88883 541.28032,518.86778 550.34887,519.45285 C 555.31182,519.77304 560.78588,520.77631 565.28564,519.45285 C 568.48057,518.51317 572.55227,515.52562 573.43294,512.66342 C 574.36277,509.64144 572.55691,504.92792 570.71714,501.80032 C 568.03061,497.23322 564.06855,492.90659 559.85404,489.57934 C 555.46861,486.11716 542.87228,480.47767 544.91732,481.43202 z"
     id="path1567"
     sodipodi:nodetypes="cssssssssssssssssssssssssss"
     style="fill:#ff0000;fill-opacity:1;fill-rule:evenodd;stroke:#000000;stroke-width:0.5;stroke-linecap:butt;stroke-linejoin:miter;stroke-miterlimit:4;stroke-opacity:1"
     transform="matrix(0.900128,0,0,0.880072,61.56576,68.61343)" /><path
     d="M 195.50263,314.31244 C 187.64109,308.1368 176.54805,303.2637 171.918,295.7855 C 169.38511,291.69453 171.56004,283.88162 174.01383,279.60493 C 175.92993,276.26538 182.01202,275.81209 185.02767,272.93681 C 187.72495,270.36507 188.71039,266.15513 191.15264,263.26386 C 193.4086,260.59312 196.18605,258.1054 199.1223,256.25076 C 200.96208,255.08867 203.36126,254.89268 205.48074,254.21365"
     id="path932"
     sodipodi:nodetypes="cssssss"
     style="fill:none;fill-opacity:0.75;fill-rule:evenodd;stroke:#ff6f00;stroke-width:0.5;stroke-linecap:butt;stroke-linejoin:miter;stroke-miterlimit:4;stroke-opacity:1"
     transform="matrix(0.900128,0,0,0.880072,61.56576,68.61343)" /><path
     d="M 554.99472,483.68007 C 559.07509,485.06493 576.39377,493.82966 587.01659,499.0598 C 595.6168,503.29411 604.14527,507.6767 612.6638,512.07342 C 617.89811,514.77504 622.92674,517.90104 628.27513,520.35481 C 636.67959,524.21067 645.48899,527.19971 653.92235,531.00233 C 660.35694,533.9037 666.64194,537.15818 672.879,540.46677 C 678.5363,543.46781 684.09099,546.67447 689.60544,549.93123 C 692.9507,551.90689 696.14115,554.13981 699.45811,556.16403 C 704.06898,558.97787 716.31064,563.78998 713.38893,564.44542 C 704.47735,566.4446 674.77173,560.6164 663.95823,564.12791 C 660.52502,565.24279 672.12078,575.39638 670.64878,578.32459 C 669.14719,581.31166 655.03745,577.75048 655.03745,581.87376 C 655.03745,594.70763 675.83606,626.44431 670.64878,629.19602 C 664.6851,632.35959 637.39383,610.27259 621.58457,599.61961 C 609.88814,591.73804 599.06746,582.53181 588.1317,573.59237 C 576.39385,563.99726 565.71668,552.99543 553.56373,544.01594 C 544.90156,537.6157 535.15961,532.6341 525.68634,527.45316 C 519.96419,524.32371 514.01276,521.56125 507.97747,519.08475 C 497.76858,514.89567 476.60455,509.01779 476.95379,507.45644 C 477.30373,505.89197 499.08664,508.49374 510.07499,509.70731 C 520.1629,510.82144 530.11852,513.07645 540.18258,514.43953 C 547.58836,515.44257 555.04443,516.47008 562.48451,516.80565 C 566.13432,516.97027 570.57971,517.39976 573.45227,515.94011 C 575.31176,514.99523 576.3674,511.81338 576.68065,509.59206 C 576.98864,507.40808 576.27821,504.80789 575.31598,502.72421 C 573.71528,499.25795 571.76692,495.54294 568.99184,492.94226 C 564.99317,489.19489 553.06684,483.02575 554.99472,483.68007 z"
     id="path1625"
     sodipodi:nodetypes="cssssssssssssssssssssssssss"
     style="fill:#ff6400;fill-opacity:1;fill-rule:evenodd;stroke:#000000;stroke-width:0.5;stroke-linecap:butt;stroke-linejoin:miter;stroke-miterlimit:4;stroke-opacity:1"
     transform="matrix(0.900128,0,0,0.880072,61.56576,68.61343)" /><path
     d="M 562.07624,486.92265 C 566.2028,487.54232 581.67378,496.53047 591.44084,501.39791 C 598.90167,505.11604 606.37703,508.81183 613.75991,512.67934 C 618.00258,514.90186 622.09765,517.40126 626.31749,519.66798 C 633.12466,523.32449 639.98324,526.88726 646.84094,530.44902 C 652.02836,533.14328 657.31887,535.64534 662.45286,538.43604 C 667.11457,540.97002 671.68843,543.6758 676.22806,546.42306 C 678.98491,548.09142 681.60964,549.97406 684.34232,551.6829 C 688.13867,554.05689 698.23314,558.11572 695.81517,558.67155 C 688.48772,560.35596 663.9749,555.20525 655.10608,558.40361 C 652.04237,559.50848 661.31954,568.92736 660.0176,571.58123 C 658.87061,573.91925 647.00542,569.31885 647.75929,573.37928 C 650.24929,586.79075 659.69778,611.18472 655.22928,613.61368 C 650.51431,616.17661 631.88234,596.77453 620.20887,588.35496 C 610.68327,581.48455 601.65951,573.93025 592.65847,566.39064 C 582.98645,558.28899 574.21494,549.02147 564.18971,541.43117 C 557.07246,536.04255 549.03851,531.82926 541.23103,527.45388 C 536.52419,524.81613 531.77004,522.05407 526.64674,520.3918 C 509.51366,514.8329 474.17436,507.10766 474.4619,505.79038 C 474.75016,504.46979 510.4327,510.04339 528.37416,512.4782 C 536.66858,513.60383 544.86211,515.58841 553.16954,516.47172 C 558.95029,517.08638 565.02508,517.51067 570.63869,516.97213 C 572.06338,516.83545 573.27029,515.47565 574.28443,514.44607 C 575.07252,513.64598 575.81739,512.57185 576.04538,511.48313 C 576.42877,509.65228 576.55336,507.52555 576.11858,505.68738 C 575.53995,503.241 574.52681,500.66287 573.00516,498.62949 C 569.84603,494.40796 560.05757,486.61951 562.07624,486.92265 z"
     id="path1627"
     sodipodi:nodetypes="cssssssssssssssssssssssssss"
     style="fill:#ffc900;fill-opacity:1;fill-rule:evenodd;stroke:#000000;stroke-width:0.5;stroke-linecap:butt;stroke-linejoin:miter;stroke-miterlimit:4;stroke-opacity:1"
     transform="matrix(0.900128,0,0,0.880072,61.56576,68.61343)" /><path
     d="M 285.84066,544.7174 C 286.44339,540.11727 263.4335,540.26165 260.37191,545.68615 C 253.83583,557.26674 258.35649,584.00036 252.99691,602.87365 C 252.97894,602.93691 253.71321,602.66303 252.80941,602.8424 C 249.34314,603.53033 240.7657,606.45618 238.74648,610.95473 C 237.66281,613.36898 233.27157,617.58508 233.07395,618.79163 C 232.80885,620.41017 235.27129,617.12332 236.2868,618.88539 C 235.19648,619.13202 246.57899,611.78943 251.85427,617.84291 C 252.29151,618.34465 253.88765,619.68747 255.49058,621.44522 C 255.70522,621.68059 256.94109,623.13851 257.12191,623.4049 C 258.87235,625.98371 259.71566,629.77243 259.71566,633.4049 C 259.71567,644.00829 252.62984,650.97435 244.52226,652.63906 C 243.61125,652.82611 244.02108,654.74865 245.21566,654.74865 C 257.0338,654.74867 266.65316,645.1937 266.65316,633.4049 C 266.65316,628.22717 264.3703,623.52409 261.65316,619.81115 C 261.47485,619.56749 261.8585,618.78096 262.09066,618.9674 C 266.36545,622.40029 269.21566,628.46271 269.21566,634.74865 C 269.21566,645.35207 261.60946,652.86976 253.50188,654.53444 C 252.59087,654.72149 253.55233,656.12365 254.74691,656.12365 C 266.56506,656.12363 276.15316,646.53745 276.15316,634.74865 C 276.15316,626.04599 275.39748,622.33649 270.16806,616.46286 C 269.83018,616.08335 268.85693,614.92957 266.94888,613.51269 C 264.775,611.89842 260.44943,609.043 260.93441,606.68615 C 265.31848,585.38093 284.37289,555.91975 285.84066,544.7174 z"
     id="rect1623"
     sodipodi:nodetypes="cssssscsssssssssssssssss"
     style="fill:#9c0000;fill-opacity:1;fill-rule:evenodd;stroke:#000000;stroke-width:0.99999905pt;stroke-linecap:butt;stroke-linejoin:miter;stroke-opacity:1"
     transform="matrix(0.900128,0,0,0.880072,61.56576,68.61343)" /><path
     d="M 561.3896,490.77494 C 565.14398,491.5183 578.84982,499.25716 587.54729,503.54329 C 594.19108,506.81736 600.84947,510.07584 607.41339,513.45557 C 611.18544,515.39777 614.80662,517.53558 618.55526,519.50906 C 624.60232,522.69253 630.70179,525.80989 636.8005,528.92643 C 641.41379,531.28393 646.1324,533.50566 650.69128,535.93114 C 654.8308,538.13348 658.88012,540.45746 662.8957,542.8099 C 665.33431,544.23848 667.63972,545.81724 670.0539,547.27425 C 673.40776,549.29839 682.4507,553.00618 680.19982,553.25336 C 673.37873,554.00245 651.15828,548.49478 642.83799,550.26302 C 639.96376,550.87386 647.95891,558.50806 646.61628,560.39058 C 645.43346,562.04904 634.79479,557.81746 635.26166,560.88599 C 636.80368,571.02125 644.12522,589.79348 639.88772,591.29178 C 635.41651,592.87271 619.38626,577.17971 609.13553,570.12368 C 600.77089,564.36593 592.90496,558.13447 585.05907,551.91547 C 576.62831,545.23287 569.08904,537.74582 560.30562,531.41893 C 554.06996,526.92726 546.92743,523.24599 540.00184,519.45982 C 535.82666,517.17726 531.61493,514.79912 527.00324,513.2128 C 511.58108,507.90784 479.56325,499.74502 479.90034,498.78601 C 480.23828,497.8246 512.69065,504.41233 529.02834,507.45153 C 536.58135,508.85658 543.99405,510.89289 551.57244,512.1188 C 556.84588,512.97184 562.39986,513.70362 567.58382,513.68839 C 568.89948,513.68452 570.08303,512.75696 571.07129,512.06154 C 571.83926,511.52111 572.58276,510.77412 572.8525,509.98085 C 573.30608,508.64683 573.53848,507.07526 573.24128,505.6797 C 572.84575,503.82242 572.0586,501.83742 570.77433,500.22233 C 568.10805,496.86917 559.553,490.4113 561.3896,490.77494 z"
     id="path1609"
     sodipodi:nodetypes="cssssssssssssssssssssssssss"
     style="fill:#ffee00;fill-opacity:1;fill-rule:evenodd;stroke:#000000;stroke-width:0.5;stroke-linecap:butt;stroke-linejoin:miter;stroke-miterlimit:4;stroke-opacity:1"
     transform="matrix(0.900128,0,0,0.880072,61.56576,68.61343)" /><path
     d="M 466.15992,459.70583 C 464.97194,463.86375 470.37271,477.00275 472.94935,485.50566 C 474.899,491.9395 478.32138,498.13778 479.73878,504.51608 C 480.1319,506.2851 476.92979,509.54454 478.3809,509.94762 C 485.07711,511.80768 495.69004,510.17342 504.18074,511.30551 C 509.26891,511.98393 514.07332,514.3283 519.1175,515.37917 C 524.93641,516.59144 530.86259,517.38605 536.77002,518.09494 C 542.17831,518.74393 547.62507,519.1938 553.06467,519.45283 C 557.13028,519.64643 561.27016,519.92524 565.28567,519.45283 C 568.96486,519.01999 572.7019,518.06278 576.14877,516.73706 C 578.58607,515.79964 582.05206,514.65718 582.93817,512.6634 C 583.86256,510.58352 582.24599,507.17893 581.58027,504.51608 C 580.88809,501.74738 580.73212,498.38008 578.86447,496.36876 C 574.84795,492.04327 569.17836,488.65602 563.92777,485.50566 C 560.1258,483.22447 555.31853,482.5572 551.70678,480.07412 C 548.07646,477.57828 545.57914,473.49614 542.20157,470.56891 C 538.78971,467.61197 535.02029,465.05147 531.33848,462.4216 C 528.68349,460.52518 525.72766,459.01925 523.19116,456.99005 C 521.20137,455.39822 517.2278,450.62784 517.75961,451.55851 C 519.03831,453.79624 525.14834,461.41735 528.6227,466.49526 C 531.03252,470.01729 533.69503,473.58071 535.41214,477.35834 C 535.95818,478.55962 536.0732,480.55058 535.41214,481.432 C 534.71532,482.3611 532.74136,482.61453 531.33848,482.78989 C 529.12033,483.06716 526.74733,483.18958 524.54904,482.78989 C 521.76841,482.28432 519.13716,480.9158 516.40172,480.07412 C 513.25299,479.10528 510.05259,478.30516 506.89652,477.35834 C 501.00001,475.58939 494.97832,474.11131 489.24399,471.9268 C 485.47312,470.49028 481.95802,468.38903 478.3809,466.49526 C 474.26333,464.31537 466.78246,457.52694 466.15992,459.70583 z"
     id="path1601"
     sodipodi:nodetypes="cssssssssssssssssssssssssssss"
     style="fill:#ffe684;fill-opacity:1;fill-rule:evenodd;stroke:#000000;stroke-width:0.5;stroke-linecap:butt;stroke-linejoin:miter;stroke-miterlimit:4;stroke-opacity:1"
     transform="matrix(0.900128,0,0,0.880072,61.56576,68.61343)" /><path
     d="M 466.14238,458.66384 C 464.98164,462.3345 470.25855,473.93377 472.7761,481.44024 C 474.68104,487.12011 478.02493,492.59203 479.40982,498.22287 C 479.79393,499.78458 476.66525,502.66205 478.08308,503.01789 C 484.62573,504.65998 494.99526,503.21723 503.29124,504.21666 C 508.26271,504.81557 512.95694,506.88521 517.88544,507.81293 C 523.5709,508.88314 529.36117,509.58463 535.13312,510.21045 C 540.41738,510.78338 545.73923,511.18053 551.05408,511.40921 C 555.02644,511.58012 559.07139,511.82626 562.99481,511.40921 C 566.58962,511.02709 570.24096,510.18206 573.60877,509.01169 C 575.99018,508.18413 577.14496,507.64052 576.99406,505.05448 C 576.7743,501.28804 577.03961,500.57366 576.38916,498.22287 C 575.71285,495.77862 575.9214,494.24968 574.09659,492.47406 C 570.17218,488.65547 566.79823,484.22141 561.66804,481.44024 C 557.95327,479.42638 553.25625,478.8373 549.72733,476.64521 C 546.18027,474.44185 543.74022,470.83809 540.44012,468.25391 C 537.1065,465.64347 533.42351,463.38303 529.82614,461.06135 C 527.23205,459.38717 524.34401,458.05772 521.86567,456.26632 C 519.92152,454.86103 516.03908,450.64968 516.55868,451.47129 C 517.80807,453.44678 523.77797,460.17479 527.17266,464.65763 C 529.52721,467.76693 532.12865,470.91275 533.80639,474.24769 C 534.3399,475.30819 534.45228,477.06583 533.80639,477.84396 C 533.12554,478.66418 531.19685,478.88791 529.82614,479.04272 C 527.65887,479.2875 525.34029,479.39557 523.19241,479.04272 C 520.47555,478.5964 517.90464,477.38825 515.23194,476.64521 C 512.15543,475.78991 509.02842,475.08355 505.94474,474.24769 C 500.18345,472.68604 494.29986,471.38117 488.69704,469.45266 C 485.01265,468.18449 481.57817,466.32947 478.08308,464.65763 C 474.05995,462.7332 466.75064,456.74029 466.14238,458.66384 z"
     id="path1603"
     sodipodi:nodetypes="cssssssssssssssssssssssssssss"
     style="fill:#ffe67b;fill-opacity:1;fill-rule:evenodd;stroke:#000000;stroke-width:0.5;stroke-linecap:butt;stroke-linejoin:miter;stroke-miterlimit:4;stroke-opacity:1"
     transform="matrix(0.900128,0,0,0.880072,61.56576,68.61343)" /><path
     d="M 267.50368,425.01852 A 122.88875,25.799847 0 1 1 21.726181,425.01852 A 122.88875,25.799847 0 1 1 267.50368,425.01852 z"
     id="path1651"
     sodipodi:cx="144.61493"
     sodipodi:cy="425.01852"
     sodipodi:fill-cmyk="(0.0000000 0.35193133 1.0000000 0.0000000)"
     sodipodi:rx="122.88875"
     sodipodi:ry="25.799847"
     sodipodi:type="arc"
     style="fill:#ffa500;fill-opacity:1;fill-rule:evenodd;stroke:#000000;stroke-width:0.96336275;stroke-linecap:butt;stroke-linejoin:miter;stroke-miterlimit:4;stroke-opacity:1"
     transform="matrix(1.044049,0.718741,-0.586234,1.167782,481.0282,-91.20571)" /><path
     d="M 462.99882,449.98446 C 461.9609,453.57378 466.67948,464.91605 468.93066,472.25618 C 470.63405,477.81019 470.01479,483.16085 471.25315,488.66692 C 471.59662,490.19402 469.52084,493.36869 470.78866,493.71664 C 476.63906,495.32234 488.79892,493.55062 496.21714,494.52791 C 500.66261,495.11355 504.86016,497.13733 509.2672,498.04448 C 514.35111,499.09099 519.52874,499.77693 524.68999,500.38888 C 529.41513,500.94911 534.17391,501.33747 538.92643,501.56108 C 542.47849,501.72821 546.09547,501.96889 549.60377,501.56108 C 552.81823,501.18742 556.08325,500.36113 559.09471,499.21669 C 561.22416,498.40747 564.25234,497.42124 565.02655,495.7001 C 565.83415,493.90464 564.42179,490.96562 563.84015,488.66692 C 563.23541,486.27683 563.09913,483.37001 561.4674,481.63375 C 557.95821,477.89975 553.00476,474.97572 548.41738,472.25618 C 545.09564,470.28692 542.33933,468.98903 539.18379,466.84553 C 536.01203,464.691 532.38643,461.88896 529.43548,459.36202 C 526.45458,456.80943 523.16126,454.59907 519.94452,452.32884 C 517.6249,450.69175 515.04243,449.39177 512.8263,447.64005 C 511.08785,446.2659 507.61619,441.06505 508.08081,441.86847 C 509.19801,443.80019 514.53627,451.46192 517.57179,455.84544 C 519.67721,458.88584 522.00341,461.96196 523.50364,465.22301 C 523.98069,466.26001 524.08119,467.9787 523.50364,468.73958 C 522.89481,469.54162 521.17018,469.76041 519.94452,469.91178 C 518.00655,470.15113 515.93329,470.25681 514.01267,469.91178 C 511.58327,469.47534 509.28438,468.29398 506.89445,467.5674 C 504.14345,466.73104 501.34731,466.04035 498.58989,465.22301 C 493.43818,463.69596 488.1771,462.42001 483.16709,460.53422 C 479.87252,459.29414 476.80142,457.48022 473.67614,455.84544 C 470.07867,453.96364 463.54272,448.10352 462.99882,449.98446 z"
     id="path1604"
     sodipodi:nodetypes="cssssssssssssssssssssssssssss"
     style="fill:#ffffa1;fill-opacity:1;fill-rule:evenodd;stroke:#000000;stroke-width:0.5;stroke-linecap:butt;stroke-linejoin:miter;stroke-miterlimit:4;stroke-opacity:1"
     transform="matrix(0.900128,0,0,0.880072,61.56576,68.61343)" /><path
     d="M 252.59106,400.47912 C 252.86093,405.02587 258.86896,414.62915 262.93185,421.0463 C 266.5288,426.72749 273.39849,430.74436 275.57059,436.77413 C 277.61141,442.43941 273.04414,450.66312 275.57059,456.13146 C 279.938,465.5844 288.69705,473.78155 296.25218,481.53796 C 304.01675,489.50938 312.74563,496.57069 321.52967,503.31497 C 331.12926,510.68541 341.16312,517.52827 351.40308,523.88214 C 362.61069,530.83644 374.48228,536.59698 385.87238,543.23947 C 399.37677,551.11498 412.9149,558.97351 426.08657,567.43615 C 435.51144,573.49151 444.37738,580.49314 453.66201,586.79348 C 461.61203,592.18819 469.71448,597.33608 477.79053,602.52131 C 485.41717,607.41802 493.05482,612.30037 500.77008,617.03932 C 506.84256,620.76921 512.80635,624.79491 519.15372,627.92782 C 525.06212,630.84407 531.40026,632.79343 537.53736,635.18682 C 541.74105,636.82621 550.39121,642.63143 550.17606,640.02616 C 549.62523,633.35604 541.06123,617.71859 535.23939,607.36066 C 529.95446,597.95798 523.51123,589.1539 516.85574,580.74431 C 510.10649,572.21623 502.14138,564.76588 495.02519,556.54764 C 490.26861,551.05443 483.88279,546.26407 481.23746,539.60997 C 476.98892,528.92312 477.19279,516.06365 474.3436,504.5248 C 472.21388,495.89977 469.65114,487.28801 466.30076,479.11829 C 462.37428,469.54379 457.66868,460.21074 452.51304,451.29214 C 446.9449,441.65996 440.83901,432.24367 434.12941,423.46596 C 428.20026,415.70927 422.45509,405.17296 414.5968,401.68896 C 407.90138,398.72052 398.5297,403.71383 390.46829,404.10863 C 382.06103,404.52038 373.5175,405.00789 365.19079,404.10863 C 358.58081,403.39478 352.11227,401.10603 345.65819,399.26929 C 337.94156,397.07326 330.22568,394.75055 322.67864,392.01029 C 319.1189,390.71778 315.39394,386.56759 312.33785,387.17096 C 309.26606,387.77742 307.23662,393.16186 304.29501,395.63979 C 301.49174,398.0012 298.4253,400.45435 295.1032,401.68896 C 291.91443,402.87401 288.21688,402.58249 284.76241,402.89879 C 279.40806,403.38904 273.95718,404.38664 268.67674,404.10863 C 266.29734,403.98336 264.14001,402.22081 261.78288,401.68896 C 258.77811,401.01097 252.47795,398.57342 252.59106,400.47912 z"
     id="path1571"
     sodipodi:nodetypes="cssssssssssssssssssssssssssssssssss"
     style="fill:#ff8d00;fill-opacity:1;fill-rule:evenodd;stroke:#000000;stroke-width:0.42038184;stroke-linecap:butt;stroke-linejoin:miter;stroke-miterlimit:4;stroke-opacity:1" /><path
     d="M 267.50368,425.01852 A 122.88875,25.799847 0 1 1 21.726181,425.01852 A 122.88875,25.799847 0 1 1 267.50368,425.01852 z"
     id="path1597"
     sodipodi:cx="144.61493"
     sodipodi:cy="425.01852"
     sodipodi:fill-cmyk="(0.0000000 0.35193133 1.0000000 0.0000000)"
     sodipodi:rx="122.88875"
     sodipodi:ry="25.799847"
     sodipodi:type="arc"
     style="fill:#ffa500;fill-opacity:1;fill-rule:evenodd;stroke:#000000;stroke-width:0.38777491;stroke-linecap:butt;stroke-linejoin:miter;stroke-miterlimit:4;stroke-opacity:1"
     transform="matrix(0.835159,0.76249,-0.639147,0.993475,503.057,-31.65458)" /><path
     d="M 252.56253,398.29205 C 252.82888,402.12838 258.75848,410.2312 262.76835,415.64571 C 266.31833,420.43924 273.09836,423.8285 275.24211,428.91615 C 277.25628,433.69627 272.74864,440.63506 275.24211,445.249 C 279.55251,453.22496 288.19723,460.14136 295.65374,466.68587 C 303.31695,473.41179 311.9319,479.36979 320.60128,485.06031 C 330.07556,491.27917 339.97845,497.05288 350.08474,502.41398 C 361.14606,508.2817 372.86268,513.1422 384.10411,518.74683 C 397.43222,525.39184 410.79364,532.0225 423.79336,539.16289 C 433.09522,544.27214 441.84542,550.1798 451.00886,555.49576 C 458.85511,560.04756 466.8518,564.39112 474.82243,568.76619 C 482.34952,572.89781 489.88747,577.01732 497.50202,581.01583 C 503.49523,584.16295 509.38118,587.55965 515.6457,590.20306 C 521.47697,592.66367 527.73238,594.30845 533.78937,596.32788 C 537.93818,597.71112 546.47544,602.60932 546.2631,600.4111 C 545.71945,594.78315 537.26725,581.58897 531.52139,572.8494 C 526.30546,564.91586 519.94632,557.48736 513.37771,550.39173 C 506.71656,543.19612 498.85541,536.90984 491.83211,529.97567 C 487.13763,525.34075 480.83516,521.29885 478.22436,515.68441 C 474.03128,506.66733 474.23249,495.8171 471.42049,486.08112 C 469.31857,478.80371 466.78928,471.5375 463.48264,464.64427 C 459.60741,456.56572 454.96323,448.69092 449.87489,441.16579 C 444.37943,433.0386 438.35325,425.09355 431.73122,417.6873 C 425.87947,411.14257 420.2093,402.2525 412.45358,399.31285 C 405.84555,396.80821 396.59621,401.02134 388.64002,401.35447 C 380.34251,401.70187 371.9105,402.11321 363.69248,401.35447 C 357.16877,400.75215 350.78468,398.821 344.41484,397.27125 C 336.79893,395.41833 329.18378,393.45853 321.73526,391.14643 C 318.22197,390.05586 314.54563,386.55412 311.52944,387.06321 C 308.49774,387.57491 306.49479,392.11806 303.59159,394.20884 C 300.8249,396.20128 297.79849,398.27114 294.51976,399.31285 C 291.3726,400.31275 287.72332,400.06678 284.31394,400.33366 C 279.02948,400.74731 273.64976,401.58903 268.43825,401.35447 C 266.0899,401.24876 263.96074,399.7616 261.63437,399.31285 C 258.66882,398.7408 252.45089,396.6841 252.56253,398.29205 z"
     id="path1629"
     sodipodi:nodetypes="cssssssssssssssssssssssssssssssssss"
     style="fill:#ff3200;fill-opacity:1;fill-rule:evenodd;stroke:#000000;stroke-width:0.44017482;stroke-linecap:butt;stroke-linejoin:miter;stroke-miterlimit:4;stroke-opacity:1" /><path
     d="M 267.50368,425.01852 A 122.88875,25.799847 0 1 1 21.726181,425.01852 A 122.88875,25.799847 0 1 1 267.50368,425.01852 z"
     id="path1655"
     sodipodi:cx="144.61493"
     sodipodi:cy="425.01852"
     sodipodi:fill-cmyk="(0.0000000 0.35193133 1.0000000 0.0000000)"
     sodipodi:rx="122.88875"
     sodipodi:ry="25.799847"
     sodipodi:type="arc"
     style="fill:#ffa500;fill-opacity:1;fill-rule:evenodd;stroke:#000000;stroke-width:0.38777491;stroke-linecap:butt;stroke-linejoin:miter;stroke-miterlimit:4;stroke-opacity:1"
     transform="matrix(0.835159,0.76249,-0.639147,0.993475,549.5034,-34.04459)" /><path
     d="M 267.50368,425.01852 A 122.88875,25.799847 0 1 1 21.726181,425.01852 A 122.88875,25.799847 0 1 1 267.50368,425.01852 z"
     id="path1652"
     sodipodi:cx="144.61493"
     sodipodi:cy="425.01852"
     sodipodi:fill-cmyk="(0.0000000 0.35193133 1.0000000 0.0000000)"
     sodipodi:rx="122.88875"
     sodipodi:ry="25.799847"
     sodipodi:type="arc"
     style="fill:#ffa500;fill-opacity:1;fill-rule:evenodd;stroke:#000000;stroke-width:0.46680704;stroke-linecap:butt;stroke-linejoin:miter;stroke-miterlimit:4;stroke-opacity:1"
     transform="matrix(0.694233,0.686105,-0.653232,0.663545,508.2388,98.1565)" /><path
     d="M 267.50368,425.01852 A 122.88875,25.799847 0 1 1 21.726181,425.01852 A 122.88875,25.799847 0 1 1 267.50368,425.01852 z"
     id="path1599"
     sodipodi:cx="144.61493"
     sodipodi:cy="425.01852"
     sodipodi:fill-cmyk="(0.0000000 0.57939917 1.0000000 0.0000000)"
     sodipodi:rx="122.88875"
     sodipodi:ry="25.799847"
     sodipodi:type="arc"
     style="fill:#ff6b00;fill-opacity:1;fill-rule:evenodd;stroke:#000000;stroke-width:0.66130245;stroke-linecap:butt;stroke-linejoin:miter;stroke-miterlimit:4;stroke-opacity:1"
     transform="matrix(0.523859,0.38905,-0.293566,0.646445,437.4469,180.6475)" /><path
     d="M 267.50368,425.01852 A 122.88875,25.799847 0 1 1 21.726181,425.01852 A 122.88875,25.799847 0 1 1 267.50368,425.01852 z"
     id="path1600"
     sodipodi:cx="144.61493"
     sodipodi:cy="425.01852"
     sodipodi:fill-cmyk="(0.0000000 0.71673822 1.0000000 0.0000000)"
     sodipodi:rx="122.88875"
     sodipodi:ry="25.799847"
     sodipodi:type="arc"
     style="fill:#ff4800;fill-opacity:1;fill-rule:evenodd;stroke:#000000;stroke-width:0.43309259;stroke-linecap:butt;stroke-linejoin:miter;stroke-miterlimit:4;stroke-opacity:1"
     transform="matrix(0.79367,0.602971,-0.483236,0.963209,484.6008,-19.22258)" /><path
     d="M 267.50368,425.01852 A 122.88875,25.799847 0 1 1 21.726181,425.01852 A 122.88875,25.799847 0 1 1 267.50368,425.01852 z"
     id="path1598"
     sodipodi:cx="144.61493"
     sodipodi:cy="425.01852"
     sodipodi:fill-cmyk="(0.0000000 0.72961372 1.0000000 0.0000000)"
     sodipodi:rx="122.88875"
     sodipodi:ry="25.799847"
     sodipodi:type="arc"
     style="fill:#ff4500;fill-opacity:1;fill-rule:evenodd;stroke:#000000;stroke-width:0.45761251;stroke-linecap:butt;stroke-linejoin:miter;stroke-miterlimit:4;stroke-opacity:1"
     transform="matrix(0.739055,0.559919,-0.502616,0.785827,526.9991,53.05225)" /><path
     d="M 267.50368,425.01852 A 122.88875,25.799847 0 1 1 21.726181,425.01852 A 122.88875,25.799847 0 1 1 267.50368,425.01852 z"
     id="path1632"
     sodipodi:cx="144.61493"
     sodipodi:cy="425.01852"
     sodipodi:fill-cmyk="(0.0000000 0.48927039 1.0000000 0.0000000)"
     sodipodi:rx="122.88875"
     sodipodi:ry="25.799847"
     sodipodi:type="arc"
     style="fill:#ff8200;fill-opacity:1;fill-rule:evenodd;stroke:#000000;stroke-width:0.6094535;stroke-linecap:butt;stroke-linejoin:miter;stroke-miterlimit:4;stroke-opacity:1"
     transform="matrix(0.522642,0.484183,-0.426775,0.62481,411.9865,109.2792)" /><path
     d="M 267.50368,425.01852 A 122.88875,25.799847 0 1 1 21.726181,425.01852 A 122.88875,25.799847 0 1 1 267.50368,425.01852 z"
     id="path1633"
     sodipodi:cx="144.61493"
     sodipodi:cy="425.01852"
     sodipodi:rx="122.88875"
     sodipodi:ry="25.799847"
     sodipodi:type="arc"
     style="fill:#ff6000;fill-opacity:1;fill-rule:evenodd;stroke:#000000;stroke-width:0.60575765;stroke-linecap:butt;stroke-linejoin:miter;stroke-miterlimit:4;stroke-opacity:1"
     transform="matrix(0.568816,0.438566,-0.361218,0.670335,416.7619,100.3614)" /><path
     d="M 267.50368,425.01852 A 122.88875,25.799847 0 1 1 21.726181,425.01852 A 122.88875,25.799847 0 1 1 267.50368,425.01852 z"
     id="path1634"
     sodipodi:cx="144.61493"
     sodipodi:cy="425.01852"
     sodipodi:fill-cmyk="(0.0000000 0.84120172 1.0000000 0.0000000)"
     sodipodi:rx="122.88875"
     sodipodi:ry="25.799847"
     sodipodi:type="arc"
     style="fill:#ff2800;fill-opacity:1;fill-rule:evenodd;stroke:#000000;stroke-width:0.56030703;stroke-linecap:butt;stroke-linejoin:miter;stroke-miterlimit:4;stroke-opacity:1"
     transform="matrix(0.624876,0.456518,-0.361497,0.745424,439.4065,56.91289)" /><path
     d="M 389.21508,368.29735 C 381.52041,368.85774 372.7199,372.34008 364.75761,373.04543 C 353.68576,374.02624 342.43637,375.09536 331.4028,374.69903 C 327.60063,374.56244 323.81133,374.03445 320.0436,373.44745 C 331.29648,385.65996 344.24992,398.45627 358.6432,411.27007 C 413.07591,459.72952 465.83701,489.24353 476.41948,477.14415 C 486.78872,465.28862 452.70521,417.84851 400.12451,370.35343 C 398.93364,369.78553 397.70713,369.31242 396.45193,368.93979 C 394.20482,368.27271 391.77997,368.11054 389.21508,368.29735 z"
     id="path1602"
     sodipodi:fill-cmyk="(0.0000000 1.0000000 1.0000000 0.0000000)"
     style="fill:#ff0000;fill-opacity:1;fill-rule:evenodd;stroke:#000000;stroke-width:0.5;stroke-linecap:butt;stroke-linejoin:miter;stroke-miterlimit:4;stroke-opacity:1"
     transform="matrix(0.900128,0,0,0.880072,61.56576,68.61343)" /><path
     d="M 185.37325,322.31394 C 187.05642,331.11813 188.80127,340.03055 191.65678,348.55708 C 193.48669,354.02116 195.89907,359.6196 199.4295,364.28578 C 202.75532,368.68152 207.54231,372.41911 212.22554,375.74284 C 215.56748,378.11464 219.40667,380.69123 223.50499,381.37238 C 230.24387,382.4924 237.67083,381.43021 244.73713,381.14636 C 250.81452,380.90224 257.09636,381.03339 262.93609,379.78847 C 267.71242,378.77024 272.1377,376.34803 276.58532,374.35692 C 280.22613,372.727 283.96233,371.10255 287.20137,368.92538 C 291.22887,366.21825 300.40709,362.09504 298.38493,359.70402 C 293.68065,354.14162 277.51715,349.87311 267.02205,345.06512 C 259.30448,341.52956 251.43404,338.25917 243.74694,334.67334 C 237.43389,331.72847 231.37413,328.34174 225.02158,325.473 C 219.57154,323.01182 213.85587,321.02969 208.33918,318.68357 C 203.32394,316.55071 198.39397,314.25719 193.4258,312.03606 C 190.23183,310.60813 184.91504,306.38053 183.85276,307.73638 C 182.23086,309.80649 184.45508,317.51123 185.37325,322.31394 z"
     id="path1635"
     sodipodi:fill-cmyk="(0.0000000 1.0000000 1.0000000 0.0000000)"
     sodipodi:nodetypes="cssssssssssssssss"
     style="fill:#ff0000;fill-opacity:1;fill-rule:evenodd;stroke:#000000;stroke-width:0.5;stroke-linecap:butt;stroke-linejoin:miter;stroke-miterlimit:4;stroke-opacity:1"
     transform="matrix(0.900128,0,0,0.880072,61.56576,68.61343)" /><path
     d="M 184.89214,319.812 C 186.28158,327.19529 187.72193,334.66935 190.07912,341.81979 C 191.58969,346.40203 193.58109,351.09694 196.49542,355.01005 C 199.24084,358.69637 203.19245,361.83075 207.0584,364.61807 C 209.81714,366.60709 212.98635,368.76784 216.36947,369.33906 C 221.93233,370.27832 228.0632,369.38756 233.89636,369.14952 C 238.91318,368.9448 244.09877,369.05478 248.9194,368.01078 C 252.86221,367.15688 256.51522,365.12559 260.18668,363.45582 C 263.19213,362.08895 266.27632,360.72667 268.95012,358.90087 C 272.27477,356.63064 279.85129,353.17287 278.18202,351.16774 C 274.29869,346.50305 260.9559,342.92343 252.29231,338.89139 C 245.92155,335.92643 239.42459,333.18385 233.07897,330.17673 C 227.86761,327.70713 222.86535,324.86698 217.62139,322.46122 C 213.12245,320.39725 208.40422,318.73502 203.85026,316.76753 C 199.71023,314.97889 195.6406,313.05552 191.53943,311.19286 C 188.90284,309.99538 184.51389,306.45007 183.63699,307.5871 C 182.29813,309.32312 184.1342,315.7844 184.89214,319.812 z"
     id="path1636"
     sodipodi:nodetypes="cssssssssssssssss"
     style="fill:#ff4d00;fill-opacity:1;fill-rule:evenodd;stroke:#000000;stroke-width:0.5;stroke-linecap:butt;stroke-linejoin:miter;stroke-miterlimit:4;stroke-opacity:1"
     transform="matrix(0.900128,0,0,0.880072,61.56576,68.61343)" /><path
     d="M 184.44229,317.31056 C 185.55761,323.27275 186.71379,329.30825 188.60592,335.08241 C 189.81847,338.78269 191.41698,342.57395 193.75633,345.73389 C 195.9601,348.71069 199.13209,351.24178 202.23532,353.49261 C 204.44978,355.0988 206.99373,356.84366 209.70939,357.30493 C 214.17474,358.06341 219.09604,357.3441 223.77836,357.15187 C 227.8054,356.98656 231.96792,357.07537 235.83747,356.23231 C 239.0024,355.54276 241.9347,353.90245 244.88181,352.55406 C 247.29431,351.45028 249.77001,350.3502 251.91629,348.87582 C 254.58501,347.04256 260.66674,344.25032 259.32681,342.63112 C 256.20963,338.86427 245.49926,335.97363 238.54494,332.71765 C 233.43107,330.32337 228.21591,328.10867 223.12224,325.68034 C 218.93904,323.68608 214.92368,321.39258 210.71432,319.44987 C 207.10298,317.78316 203.31562,316.44087 199.66012,314.85207 C 196.33689,313.4077 193.07016,311.85452 189.77812,310.35038 C 187.66171,309.38338 184.13867,306.52045 183.43477,307.43864 C 182.36006,308.84052 183.83389,314.05817 184.44229,317.31056 z"
     id="path1637"
     sodipodi:nodetypes="cssssssssssssssss"
     style="fill:#ff6d00;fill-opacity:1;fill-rule:evenodd;stroke:#000000;stroke-width:0.5;stroke-linecap:butt;stroke-linejoin:miter;stroke-miterlimit:4;stroke-opacity:1"
     transform="matrix(0.900128,0,0,0.880072,61.56576,68.61343)" /><path
     d="M 183.90981,314.20743 C 184.79017,318.90636 185.70279,323.66307 187.19631,328.21381 C 188.15342,331.13008 189.41518,334.11806 191.26172,336.60848 C 193.00123,338.95456 195.50499,340.94936 197.95449,342.72329 C 199.70244,343.98917 201.71047,345.36433 203.85404,345.72786 C 207.3787,346.32564 211.26326,345.75874 214.95918,345.60724 C 218.13787,345.47695 221.42349,345.54694 224.47787,344.88251 C 226.97606,344.33906 229.29063,343.0463 231.61689,341.9836 C 233.52116,341.11369 235.47532,340.24669 237.16945,339.0847 C 239.27597,337.63987 244.0765,335.43924 243.01884,334.16312 C 240.55834,331.19438 232.10426,328.9162 226.61497,326.35009 C 222.57841,324.46311 218.4619,322.71766 214.44128,320.80384 C 211.13933,319.23212 207.96986,317.42456 204.64726,315.89347 C 201.7967,314.5799 198.80721,313.52201 195.92179,312.26984 C 193.29864,311.1315 190.7201,309.90741 188.12157,308.72196 C 186.45101,307.95985 183.67015,305.70351 183.11454,306.42715 C 182.26623,307.53201 183.42958,311.64415 183.90981,314.20743 z"
     id="path1638"
     sodipodi:nodetypes="cssssssssssssssss"
     style="fill:#ffaf00;fill-opacity:1;fill-rule:evenodd;stroke:#000000;stroke-width:0.5;stroke-linecap:butt;stroke-linejoin:miter;stroke-miterlimit:4;stroke-opacity:1"
     transform="matrix(0.900128,0,0,0.880072,61.56576,68.61343)" /><path
     d="M 183.75299,311.70611 C 184.35923,314.9839 184.98769,318.30199 186.01617,321.4764 C 186.67526,323.51067 187.54414,325.59497 188.81572,327.33218 C 190.0136,328.96871 191.73776,330.36021 193.42455,331.59763 C 194.62824,332.48066 196.01102,333.43991 197.48715,333.6935 C 199.91433,334.11048 202.58934,333.71504 205.13446,333.60936 C 207.32339,333.51847 209.58596,333.56729 211.68929,333.10381 C 213.40961,332.72472 215.00349,331.82295 216.60542,331.08165 C 217.91675,330.47484 219.26245,329.87005 220.42907,329.05949 C 221.87969,328.05164 225.18546,326.51657 224.45713,325.6264 C 222.76276,323.55553 216.94104,321.96636 213.16096,320.17634 C 210.38127,318.86006 207.54653,317.64251 204.77782,316.3075 C 202.504,315.21114 200.32142,313.95025 198.03338,312.88223 C 196.0704,311.96593 194.01176,311.22799 192.02478,310.35453 C 190.2184,309.56047 188.44275,308.70659 186.65333,307.87967 C 185.50293,307.34805 183.58795,305.77412 183.20535,306.2789 C 182.62118,307.04961 183.42229,309.91807 183.75299,311.70611 z"
     id="path1639"
     sodipodi:nodetypes="cssssssssssssssss"
     style="fill:#fff500;fill-opacity:1;fill-rule:evenodd;stroke:#000000;stroke-width:0.5;stroke-linecap:butt;stroke-linejoin:miter;stroke-miterlimit:4;stroke-opacity:1"
     transform="matrix(0.900128,0,0,0.880072,61.56576,68.61343)" /><path
     d="M 250.2559,261.45438 C 254.72913,261.45438 264.47951,266.17278 269.26632,270.9596 C 275.01587,270.9596 276.17818,277.74903 281.4873,277.74903 C 284.54574,280.80747 292.85911,285.89635 297.78194,285.89635 C 301.25727,289.37169 313.22763,291.3279 318.15024,291.3279 C 322.79794,291.3279 333.08699,295.97297 333.08699,299.47522 C 338.44463,299.47522 344.97249,307.28705 348.02375,310.33831 C 348.02375,312.35001 349.17586,311.49043 350.73952,313.05409"
     id="path1656"
     style="fill:none;fill-opacity:0.75;fill-rule:evenodd;stroke:#ffdf00;stroke-width:1pt;stroke-linecap:butt;stroke-linejoin:miter;stroke-opacity:1"
     transform="matrix(0.900128,0,0,0.880072,61.56576,68.61343)" /><path
     d="M 258.40322,257.38072 C 265.29746,257.38072 277.41364,258.6338 277.41364,265.52804 C 284.84024,265.52804 284.55259,272.31748 290.9925,272.31748 C 297.45538,278.78036 302.85677,277.39231 308.64503,283.18058 C 315.59495,283.18058 323.53335,287.25424 329.01333,287.25424 C 333.0262,287.25424 340.94354,292.39501 343.95008,295.40156 C 348.57096,295.40156 348.41785,304.90676 356.17107,304.90676 C 356.17107,309.09285 367.03416,309.66968 367.03416,313.05409 C 369.04339,313.05409 370.45647,315.76986 372.46571,315.76986"
     id="path1657"
     style="fill:none;fill-opacity:0.75;fill-rule:evenodd;stroke:#ffdc00;stroke-width:1pt;stroke-linecap:butt;stroke-linejoin:miter;stroke-opacity:1"
     transform="matrix(0.900128,0,0,0.880072,61.56576,68.61343)" /><path
     d="M 36.181185,202.27713 L 42.016355,196.95682 L 48.623835,191.4649 L 50.769115,189.92029 L 53.686705,188.11825 L 57.719835,186.40203 L 64.413125,184.08512 L 67.759765,182.88376 L 71.192225,181.76821 L 74.195615,180.82429 L 77.284825,179.96618 L 80.631475,179.10806 L 82.948375,178.42157 L 83.806495,177.99251 L 85.608525,176.87697 L 87.067325,176.01885 L 87.668005,176.10466 L 91.872755,180.82429 L 60.036745,186.31622 L 52.056285,190.09192 L 44.504885,195.84128 L 36.181185,202.27713 z"
     id="path1666"
     style="fill:none;fill-opacity:0.75;fill-rule:evenodd;stroke:none;stroke-width:1pt;stroke-linecap:butt;stroke-linejoin:miter;stroke-opacity:1"
     transform="matrix(0.900128,0,0,0.880072,61.56576,68.61343)" /><path
     d="M 184.05656,134.78017 C 180.11469,134.78017 176.39365,135.46672 172.77531,136.43642 C 173.83535,136.35987 174.85109,136.12392 175.93156,136.12392 C 199.11746,136.12392 217.93156,154.07459 217.93156,176.18642 C 217.93156,194.4969 204.94032,209.78912 187.33781,214.56142 C 208.96599,212.93817 226.05657,195.85241 226.05656,174.81142 C 226.05656,152.69959 207.24246,134.78017 184.05656,134.78017 z"
     id="path1667"
     style="fill:#ffd700;fill-opacity:0.75;fill-rule:evenodd;stroke:none;stroke-width:1pt;stroke-linecap:butt;stroke-linejoin:miter;stroke-opacity:1"
     transform="matrix(0.900128,0,0,0.880072,61.56576,68.61343)" /><path
     d="M 195.62253,223.57648 C 199.25999,222.02719 197.84542,219.4675 206.53491,218.92862 C 211.58694,216.36892 213.80983,215.83004 217.44729,214.28075 C 217.44729,214.28075 217.44729,214.28075 217.44729,214.28075 C 217.44729,214.28075 217.44729,214.28075 217.44729,214.28075"
     id="path1671"
     sodipodi:nodetypes="ccccc"
     style="fill:none;fill-opacity:0.75;fill-rule:evenodd;stroke:#ffd900;stroke-width:1pt;stroke-linecap:butt;stroke-linejoin:miter;stroke-opacity:1"
     transform="matrix(0.900128,0,0,0.880072,61.56576,68.61343)" /><path
     d="M 199.66415,226.80978 C 203.30161,225.26049 201.88704,222.7008 210.57653,222.16192 C 215.62856,219.60222 217.85145,219.06334 221.48891,217.51405 C 221.48891,217.51405 221.48891,217.51405 221.48891,217.51405 C 221.48891,217.51405 221.48891,217.51405 221.48891,217.51405"
     id="path1674"
     sodipodi:nodetypes="ccccc"
     style="fill:none;fill-opacity:0.75;fill-rule:evenodd;stroke:#ffd500;stroke-width:1pt;stroke-linecap:butt;stroke-linejoin:miter;stroke-opacity:1"
     transform="matrix(0.900128,0,0,0.880072,61.56576,68.61343)" /><path
     d="M 204.71618,229.841 C 208.35364,228.29171 206.93907,225.73202 215.62856,225.19314 C 220.68059,222.63344 222.90348,222.09456 226.54094,220.54527 C 226.54094,220.54527 226.54094,220.54527 226.54094,220.54527 C 226.54094,220.54527 226.54094,220.54527 226.54094,220.54527"
     id="path1675"
     sodipodi:nodetypes="ccccc"
     style="fill:none;fill-opacity:0.75;fill-rule:evenodd;stroke:#ffdf00;stroke-width:1pt;stroke-linecap:butt;stroke-linejoin:miter;stroke-opacity:1"
     transform="matrix(0.900128,0,0,0.880072,61.56576,68.61343)" /><path
     d="M 89.781895,180.26041 C 91.664045,182.75203 94.043015,185.7285 96.033175,188.67255 C 97.815045,191.3085 106.71427,200.90242 106.46519,207.72438 C 106.21811,214.49213 76.027775,209.62452 61.207815,209.27754 C 47.062055,208.94634 32.700965,206.80732 34.582455,203.07971 C 39.085395,194.15843 53.229245,189.40929 65.629925,183.77586 C 78.030615,178.14244 86.642055,176.10386 89.781895,180.26041 z"
     id="path1002"
     sodipodi:nodetypes="cssssss"
     style="fill:url(#linearGradient1643);fill-opacity:1;fill-rule:evenodd;stroke:#000000;stroke-width:0.56177026;stroke-linecap:butt;stroke-linejoin:miter;stroke-miterlimit:4;stroke-opacity:1"
     transform="matrix(0.900128,0,0,0.880072,61.56576,68.61343)" /><path
     d="M 93.501515,222.03239 C 95.623095,220.31098 98.080825,218.65428 99.162725,217.36618 C 100.91685,215.27772 106.77548,210.52217 106.5264,206.84128 C 106.27932,203.18968 79.727712,206.93897 64.927435,207.74204 C 50.635808,208.51751 36.066545,204.75139 37.948035,206.76267 C 42.450975,211.57625 56.948865,217.096 69.349545,220.13559 C 81.750235,223.17517 91.265405,223.84673 93.501515,222.03239 z"
     id="path1007"
     sodipodi:nodetypes="cssssss"
     style="fill:url(#linearGradient1647);fill-opacity:1;fill-rule:evenodd;stroke:#000000;stroke-width:0.56177026;stroke-linecap:butt;stroke-linejoin:miter;stroke-miterlimit:4;stroke-opacity:1"
     transform="matrix(0.900128,0,0,0.880072,61.56576,68.61343)" /><path
     d="M 592.23239,514.34461 L 663.27319,551.39467"
     id="path1680"
     style="fill:none;fill-opacity:0.75;fill-rule:evenodd;stroke:#000000;stroke-width:0.56177026;stroke-linecap:round;stroke-linejoin:miter;stroke-miterlimit:4;stroke-opacity:1"
     transform="matrix(0.900128,0,0,0.880072,61.56576,68.61343)" /><path
     d="M 584.17894,518.06684 L 642.43432,550.66856"
     id="path1681"
     style="fill:none;fill-opacity:0.75;fill-rule:evenodd;stroke:#000000;stroke-width:0.47652778;stroke-linecap:round;stroke-linejoin:miter;stroke-miterlimit:4;stroke-opacity:1"
     transform="matrix(0.900128,0,0,0.880072,61.56576,68.61343)" /><path
     d="M 571.19561,522.58004 L 638.75505,574.67974"
     id="path1682"
     style="fill:none;fill-opacity:0.75;fill-rule:evenodd;stroke:#000000;stroke-width:0.56653273;stroke-linecap:round;stroke-linejoin:miter;stroke-miterlimit:4;stroke-opacity:1"
     transform="matrix(0.900128,0,0,0.880072,61.56576,68.61343)" /><path
     d="M 560.19996,523.84285 L 640.41195,590.12332"
     id="path1683"
     style="fill:none;fill-opacity:0.75;fill-rule:evenodd;stroke:#000000;stroke-width:0.54732496;stroke-linecap:round;stroke-linejoin:miter;stroke-miterlimit:4;stroke-opacity:1"
     transform="matrix(0.900128,0,0,0.880072,61.56576,68.61343)" /><path
     d="M 578.82123,520.58773 L 635.85139,560.0883"
     id="path1684"
     style="fill:none;fill-opacity:0.75;fill-rule:evenodd;stroke:#000000;stroke-width:0.51898396;stroke-linecap:round;stroke-linejoin:miter;stroke-miterlimit:4;stroke-opacity:1"
     transform="matrix(0.900128,0,0,0.880072,61.56576,68.61343)" /><path
     d="M 532.86096,479.12339 L 564.6737,501.34785"
     id="path1924"
     style="fill:none;fill-opacity:0.75;fill-rule:evenodd;stroke:#000000;stroke-width:0.5;stroke-linecap:round;stroke-linejoin:miter;stroke-miterlimit:4;stroke-opacity:1" /><path
     d="M 525.51466,467.50372 L 566.878,494.79818"
     id="path1925"
     style="fill:none;fill-opacity:0.75;fill-rule:evenodd;stroke:#000000;stroke-width:0.5;stroke-linecap:round;stroke-linejoin:miter;stroke-miterlimit:4;stroke-opacity:1" /><path
     d="M 527.25296,482.27224 L 557.17231,506.15419"
     id="path1926"
     style="fill:none;fill-opacity:0.75;fill-rule:evenodd;stroke:#000000;stroke-width:0.50776821;stroke-linecap:round;stroke-linejoin:miter;stroke-miterlimit:4;stroke-opacity:1" /><path
     d="M 517.37752,480.14243 L 546.07028,506.74859"
     id="path1927"
     style="fill:none;fill-opacity:0.75;fill-rule:evenodd;stroke:#000000;stroke-width:0.48193637;stroke-linecap:round;stroke-linejoin:miter;stroke-miterlimit:4;stroke-opacity:1" /><path
     d="M 503.5198,476.12531 L 530.22343,504.10397"
     id="path1928"
     style="fill:none;fill-opacity:0.75;fill-rule:evenodd;stroke:#000000;stroke-width:0.43092224;stroke-linecap:round;stroke-linejoin:miter;stroke-miterlimit:4;stroke-opacity:1" /><path
     d="M 493.76615,472.95281 L 511.88298,500.62216"
     id="path1929"
     style="fill:none;fill-opacity:0.75;fill-rule:evenodd;stroke:#000000;stroke-width:0.5;stroke-linecap:round;stroke-linejoin:miter;stroke-miterlimit:4;stroke-opacity:1" /></g><text
   xml:space="preserve"
   style="font-size:8.33762645999999918px;font-style:normal;font-variant:normal;font-weight:normal;font-stretch:normal;text-align:center;line-height:125%;writing-mode:lr-tb;text-anchor:middle;fill:#fa9763;fill-opacity:0.96587032;stroke:none;stroke-width:1px;stroke-linecap:butt;stroke-linejoin:miter;stroke-opacity:1;font-family:'00270';-inkscape-font-specification:'00270,'"
   x="55.092419"
   y="22.450924"
   id="text2873"
   sodipodi:linespacing="125%"
   transform="matrix(0.9951795,-9.8069823e-2,9.8069823e-2,0.9951795,0,0)"><tspan
     sodipodi:role="line"
     id="tspan2875"
     x="55.092419"
     y="22.450924">Neda Dictionary</tspan></text>
</svg>